HIERARCHY
ROOT pelvis
{
  OFFSET 0 100 0
  CHANNELS 6 Xposition Yposition Zposition Zrotation Xrotation Yrotation
  JOINT pelvis_right_femur
  {
    OFFSET -10.78128 -3.44521 -0.5502486
    CHANNELS 3 Zrotation Xrotation Yrotation
    JOINT right_femur_tibia
    {
      OFFSET -0.8047443 -44.0398 -0.1307829
      CHANNELS 3 Zrotation Xrotation Yrotation
      JOINT right_tibia_foot
      {
        OFFSET 3.006224 -47.83518 -5
        CHANNELS 3 Zrotation Xrotation Yrotation
        End Site
        {
          OFFSET 0 -5 15
        }
      }
    }
  }
  JOINT pelvis_left_femur
  {
    OFFSET 10.78128 -3.44521 -0.5502486
    CHANNELS 3 Zrotation Xrotation Yrotation
    JOINT left_femur_tibia
    {
      OFFSET 0.8047443 -44.0398 -0.1307829
      CHANNELS 3 Zrotation Xrotation Yrotation
      JOINT left_tibia_foot
      {
        OFFSET -4.370144 -48.10324 -4.275266
        CHANNELS 3 Zrotation Xrotation Yrotation
        End Site
        {
          OFFSET 0 -5 15
        }
      }
    }
  }
  JOINT pelvis_spine1
  {
    OFFSET 0 6.468898 -3.129235
    CHANNELS 3 Zrotation Xrotation Yrotation
    JOINT spine1
    {
      OFFSET 0 23.15396 4.99043
      CHANNELS 3 Zrotation Xrotation Yrotation
      JOINT spine2
      {
        OFFSET 0 20.79997 -5.064912
        CHANNELS 3 Zrotation Xrotation Yrotation
        JOINT neck
        {
          OFFSET 0 14.38658 9.616178
          CHANNELS 3 Zrotation Xrotation Yrotation
          End Site
          {
            OFFSET 0 20 0
          }
        }
      }
      JOINT right_manubrium
      {
        OFFSET -5.722621 16.35077 3.967754
        CHANNELS 3 Zrotation Xrotation Yrotation
        JOINT right_clavicle
        {
          OFFSET -13.16364 1.694482 -4.693211
          CHANNELS 3 Zrotation Xrotation Yrotation
          JOINT right_humerus
          {
            OFFSET -28.5034 -0.3100689 -2.792744
            CHANNELS 3 Zrotation Xrotation Yrotation
            JOINT right_radius
            {
              OFFSET -25.15693 0.02248979 -1.271978
              CHANNELS 3 Zrotation Xrotation Yrotation
              End Site
              {
                OFFSET -15 0 0
              }
            }
          }
        }
      }
      JOINT left_manubrium
      {
        OFFSET 5.722621 16.35077 3.967754
        CHANNELS 3 Zrotation Xrotation Yrotation
        JOINT left_clavicle
        {
          OFFSET 13.16364 1.694482 -4.693211
          CHANNELS 3 Zrotation Xrotation Yrotation
          JOINT left_humerus
          {
            OFFSET 29.39168 -1.063119 -2.237045
            CHANNELS 3 Zrotation Xrotation Yrotation
            JOINT left_radius
            {
              OFFSET 24.59957 -0.9528479 0.9047498
              CHANNELS 3 Zrotation Xrotation Yrotation
              End Site
              {
                OFFSET 15 -0 -0
              }
            }
          }
        }
      }
    }
  }
}
MOTION
Frames: 13
Frame Time: 0.0416666666667
27.56955 102.3232 244.5069 1.59486 -8.595694 -6.031274 0.02290336 23.12325 8.759205 -0 8.985036 -0 6.262709 -15.43392 1.691932 1.691555 -27.60967 -3.782974 -0 29.30323 -0 -9.012153 -5.334767 20.13152 -0.7799203 -0.2840677 10.03098 -2.001025 10.1388 -1.875949 2.266269 21.62607 5.182455 1.83946 -14.69671 6.884239 1.147542 -22.11893 11.76462 79.95167 21.95424 -5.561645 -0 0 27.16812 -26.44724 14.2798 13.63205 5.098317 -14.58362 -2.776612 -93.98201 21.75302 25.58046 0 0 -12.19264 -3.97754 6.502274 16.37752
28.11534 101.3108 251.2126 1.522539 -8.28325 -6.478469 -0.6694455 24.52029 8.788343 -0 13.17852 -0 7.152814 -15.14698 1.992397 0.8298573 -27.99312 -4.735384 -0 25.31973 -0 -8.848967 -5.657606 19.58757 -0.8261621 -0.4790816 9.913468 -2.299843 9.556814 -1.827229 2.40602 21.47913 5.132508 1.670731 -14.86276 7.133759 0.7977469 -22.37376 11.39873 79.65946 21.39778 -4.437552 -0 0 28.31818 -26.6413 13.97431 13.952 4.819661 -13.61492 -2.78339 -94.28569 21.9968 26.5325 0 0 -10.4857 -4.363359 6.41151 17.05573
28.72845 100.6044 258.4209 1.690606 -7.945096 -6.890484 -1.720471 25.26625 8.713862 -0 18.58163 -0 7.971142 -13.55354 1.873865 -0.7324294 -26.50159 -6.086642 -0 24.16485 -0 -8.738282 -5.692344 19.01223 -1.13534 -1.161925 9.893792 -2.474236 9.067645 -1.837727 2.577307 21.46081 5.08917 1.541014 -14.92239 7.40772 0.674105 -22.096 10.93801 79.83898 21.04768 -4.21007 -0 0 28.47407 -26.66087 13.75233 14.04816 4.545833 -12.74959 -2.821199 -94.38008 22.30436 26.97493 0 0 -9.107062 -4.68037 6.377564 17.65861
29.32153 100.4537 265.9738 2.023352 -7.873182 -7.131456 -2.931546 25.06114 8.326986 -0 25.41091 -0 8.576899 -11.07946 1.144149 -2.427761 -23.68136 -7.439539 -0 24.63703 -0 -8.637855 -5.729978 18.51424 -1.667275 -1.950546 9.868881 -2.539456 8.742269 -1.828668 2.736336 21.60425 5.051986 1.421461 -14.8683 7.676718 0.8250507 -21.30446 10.50913 80.45754 20.95295 -4.833308 -0 0 27.51435 -26.4563 13.64277 13.85363 4.345561 -12.17903 -2.871115 -94.08868 22.69412 26.71563 0 0 -8.303642 -4.846302 6.434313 18.04367
29.84077 100.9782 273.511 2.35979 -8.213842 -6.893561 -3.843514 23.34713 7.531033 -0 33.69924 -0 8.835468 -8.589725 -0.2316454 -4.060458 -19.78793 -8.574196 -0 25.49884 -0 -8.397839 -6.303968 18.0159 -2.235434 -2.37884 9.587054 -2.523603 8.617086 -1.859371 2.830562 21.91148 5.035086 1.271704 -14.72207 7.926031 1.25041 -20.17661 10.21878 81.44534 21.12893 -6.110047 -0 0 25.55522 -25.99581 13.6492 13.36554 4.185908 -12.08082 -2.964646 -93.24648 23.17965 25.57682 0 0 -8.191844 -4.789832 6.603596 18.11364
30.32624 102.0719 280.7138 2.602027 -8.877326 -6.094723 -4.05993 19.56765 6.44431 -0 42.62052 -0 8.668106 -6.881663 -2.058251 -5.434367 -14.7011 -9.4072 -0 26.00456 -0 -7.97702 -7.557789 17.45142 -2.634181 -2.247146 8.862328 -2.464497 8.646936 -2.032605 2.795041 22.36326 5.082014 1.05115 -14.47783 8.160074 1.846346 -18.96551 10.08952 82.70504 21.54241 -7.754129 -0 0 22.99296 -25.29686 13.74755 12.68501 4.019622 -12.48903 -3.13148 -91.84152 23.72501 23.51543 0 0 -8.740342 -4.48204 6.882981 17.85684
30.72965 103.5497 287.3677 2.59529 -9.664696 -5.147718 -3.637351 13.85592 5.226082 -0 49.9593 -0 8.127294 -6.307922 -3.868461 -6.244507 -8.926896 -9.915127 -0 25.48694 -0 -7.555016 -9.042486 16.8494 -2.772842 -1.62202 7.738253 -2.317692 8.698397 -2.386211 2.619721 22.89489 5.220493 0.7572979 -14.13136 8.400028 2.440631 -17.89193 10.09728 84.10461 22.10745 -9.480618 -0 0 20.35367 -24.43181 13.89552 11.96702 3.906357 -13.28161 -3.406358 -90.01004 24.25619 20.64148 0 0 -9.860761 -3.942348 7.257021 17.31803
31.05408 105.2255 293.4488 2.362099 -10.25356 -4.12951 -2.887033 6.866626 4.11922 -0 53.65272 -0 7.296897 -6.53661 -5.25173 -6.477235 -2.979645 -10.20206 -0 23.90538 -0 -7.2974 -10.35668 16.18775 -2.695208 -0.8453651 6.315187 -2.041716 8.693182 -3.004204 2.452404 23.46333 5.385739 0.4686718 -13.71501 8.684336 2.762339 -16.89105 10.04007 85.66492 22.6812 -11.25333 -0 0 18.07468 -23.48518 14.00839 11.32763 3.945449 -14.2613 -3.752567 -87.99331 24.69487 17.19723 0 0 -11.48032 -3.238259 7.706684 16.55184
31.3476 106.7058 299.0959 2.114532 -10.3611 -2.993748 -2.171977 -0.2549927 3.262373 -0 52.92079 -0 6.28125 -6.774991 -6.210755 -6.343987 2.548858 -10.43443 -0 21.49458 -0 -7.198512 -11.52871 15.38775 -2.554428 -0.3008349 4.81455 -1.670408 8.51273 -3.89225 2.389779 23.93 5.517691 0.2406677 -13.31409 9.004302 2.620177 -15.85568 9.748054 87.28037 23.13353 -13.10799 -0 0 16.29459 -22.54719 14.01478 10.8021 4.224563 -15.25765 -4.08797 -85.98151 25.00058 13.44311 0 0 -13.5663 -2.447827 8.217965 15.57639
31.5829 107.6415 304.5248 1.968571 -10.00385 -1.749685 -1.808382 -6.863406 2.671541 -0 48.00282 -0 5.133275 -6.786784 -6.902472 -6.041157 7.441477 -10.6763 -0 18.79814 -0 -7.171194 -12.76373 14.47589 -2.515442 -0.03020837 3.45541 -1.243611 8.159579 -4.931372 2.492398 24.25102 5.525572 0.1163402 -12.96242 9.281606 2.06776 -14.81437 9.247721 88.72406 23.42335 -14.97454 -0 0 14.88841 -21.67806 13.89498 10.34109 4.732631 -16.2475 -4.367303 -84.02438 25.18641 9.579211 0 0 -15.99372 -1.611532 8.786012 14.39653
31.72569 107.8617 309.9909 1.996264 -9.337097 -0.5029508 -1.933981 -12.58362 2.289223 -0 39.93522 -0 3.860525 -6.751942 -7.480042 -5.76679 11.72243 -10.89259 -0 16.45265 -0 -7.147653 -14.18482 13.53619 -2.666139 0.03096207 2.376446 -0.8119369 7.709248 -5.939432 2.74426 24.41 5.366344 0.09701423 -12.71189 9.440991 1.301421 -13.7178 8.673884 89.921 23.57581 -16.83587 -0 0 13.56555 -20.85604 13.67412 9.831416 5.407374 -17.25599 -4.545024 -82.15517 25.26619 5.769449 0 0 -18.61421 -0.7259286 9.4133 13.04503
31.78413 107.3576 315.6049 2.216029 -8.542408 0.5630172 -2.423732 -17.21946 1.932753 -0 30.24166 -0 2.462652 -6.950667 -8.020743 -5.671778 15.44327 -10.99508 -0 14.94592 -0 -7.118389 -15.75506 12.65046 -2.970579 -0.03341377 1.675399 -0.4329426 7.229542 -6.696921 3.064278 24.41866 5.081112 0.147123 -12.60696 9.464338 0.5572284 -12.54643 8.206483 90.90362 23.65344 -18.64734 -0 0 12.0596 -20.00675 13.40092 9.167857 6.136668 -18.29355 -4.580073 -80.44808 25.24446 2.177774 0 0 -21.24141 0.218725 10.08549 11.59489
31.74278 106.2911 321.2767 2.512983 -7.793226 1.246162 -2.877734 -20.76828 1.386855 -0 20.69378 -0 0.9683685 -7.581628 -8.522097 -5.746561 18.60705 -10.92803 -0 14.55483 -0 -7.131024 -17.26996 11.89471 -3.28633 -0.08075086 1.378016 -0.1291295 6.772838 -7.048005 3.362806 24.35747 4.7509 0.224221 -12.62902 9.380646 0.0402696 -11.44379 7.988356 91.67503 23.73526 -20.24672 -0 0 10.28406 -19.06955 13.12386 8.32153 6.770927 -19.34124 -4.467759 -78.99168 25.1361 -0.9981307 0 0 -23.60378 1.197519 10.76016 10.15023
